<?xml version="1.0" encoding="UTF-8" standalone="no"?>
<!-- Created with Inkscape (http://www.inkscape.org/) -->

<svg
   xmlns:dc="http://purl.org/dc/elements/1.1/"
   xmlns:cc="http://creativecommons.org/ns#"
   xmlns:rdf="http://www.w3.org/1999/02/22-rdf-syntax-ns#"
   xmlns:svg="http://www.w3.org/2000/svg"
   xmlns="http://www.w3.org/2000/svg"
   xmlns:sodipodi="http://sodipodi.sourceforge.net/DTD/sodipodi-0.dtd"
   xmlns:inkscape="http://www.inkscape.org/namespaces/inkscape"
   width="128"
   height="128"
   id="svg3299"
   version="1.1"
   inkscape:version="0.48.4 r9939"
   sodipodi:docname="New document 2">
  <defs
     id="defs3301" />
  <sodipodi:namedview
     id="base"
     pagecolor="#ffffff"
     bordercolor="#666666"
     borderopacity="1.0"
     inkscape:pageopacity="0.0"
     inkscape:pageshadow="2"
     inkscape:zoom="1.4"
     inkscape:cx="-164.21085"
     inkscape:cy="91.818171"
     inkscape:document-units="px"
     inkscape:current-layer="layer1"
     showgrid="false"
     inkscape:window-width="958"
     inkscape:window-height="473"
     inkscape:window-x="699"
     inkscape:window-y="447"
     inkscape:window-maximized="0"
     fit-margin-top="0"
     fit-margin-left="0"
     fit-margin-right="0"
     fit-margin-bottom="0" />
  <metadata
     id="metadata3304">
    <rdf:RDF>
      <cc:Work
         rdf:about="">
        <dc:format>image/svg+xml</dc:format>
        <dc:type
           rdf:resource="http://purl.org/dc/dcmitype/StillImage" />
        <dc:title></dc:title>
      </cc:Work>
    </rdf:RDF>
  </metadata>
  <g
     inkscape:label="Layer 1"
     inkscape:groupmode="layer"
     id="layer1"
     transform="translate(-308.73639,-443.44742)">
    <g
       id="g3415"
       transform="translate(-1.3042235,-14.142136)">
      <g
         id="g30"
         transform="matrix(-1.0033417,0,0,1.0067139,375.1754,532.33714)">
        <g
           id="g32">
          <path
             id="path34"
             d="m -11.9,-11.75 2.95,-23.7 0.55,-1.25 c 0.333333,-0.333333 0.7166666,-0.5 1.15,-0.5 l 14.55,0 c 0.433333,0 0.799999,0.166667 1.1,0.5 0.333333,0.33333 0.533332,0.75 0.6,1.25 l 3,23.7 -0.1,0.1 -1.55,1.15 -3.05,-24.7 -11.3,0 -3.1,24.7 -1.55,-1.25 -0.15,0.1 -0.1,-0.1 -0.15,0.1 -0.1,-0.1 -0.15,0.1 -0.1,-0.1 -0.15,0.1 -0.1,-0.1 -0.15,0.1 -0.1,-0.1 -0.25,0.2 -0.25,-0.2 -0.15,0.1 -0.1,-0.1 -0.15,0.1 -0.1,-0.1 -0.15,0.1 -0.1,-0.1 -0.15,0.1 -0.1,-0.1 -0.15,0.1 -0.1,-0.1 -0.15,0.1 -0.1,-0.1 z M 8.4,36.3 7.8,37 l -0.85,0.25 -1.55,0 0,-2 1.55,0 5.4,-10.05 1.1,1.8 -5.05,9.3 z m 5.05,-9.3 0,0.05 z m -15.6,10.25 -4.75,0 -0.85,-0.25 -0.65,-0.7 -5.05,-9.25 0.25,0 0.25,0 0.25,0 0.25,0 0.25,0 0.25,0 0.05,-0.1 0.45,0.1 0.25,0 0.25,0 0.25,0 0.25,0 0.25,0 1.05,-1.85 5.5,10.05 1.5,0 0,2 z M -13.45,27.05 -13.4,27 z m 0.25,0 0.05,-0.05 z m 2.75,0 0.05,-0.05 z m -0.25,0 0.05,-0.05 z m -0.25,0 0.05,-0.05 z m -0.25,0 0.05,-0.05 z m -0.25,0 0.05,-0.05 z m -0.75,0 0.05,-0.05 z m -0.25,0 0.05,-0.05 z m -0.25,0 0.05,-0.05 z m -0.25,0 0.05,-0.05 z"
             inkscape:connector-curvature="0"
             style="fill:#cccccc;stroke-linecap:round;stroke-linejoin:round" />
          <path
             id="path36"
             d="m 12,-11.75 19.45,12.65 2.4,-1.3 0.1,0.1 0.15,-0.1 0.1,0.1 0.15,-0.1 0.1,0.1 0.15,-0.1 0.1,0.1 0.15,-0.1 0.1,0.1 0.15,-0.1 0.1,0.1 0.15,-0.1 0.15,0.2 0.35,-0.2 0.1,0.1 0.15,-0.1 0.1,0.1 0.15,-0.1 0.1,0.1 0.15,-0.1 0.1,0.1 0.15,-0.1 0.1,0.1 0.15,-0.1 1.3,1.5 -5.5,3 -18.9,-12.25 -3.65,-2.35 1.55,-1.15 0.1,-0.1 z m 22.95,33.7 -1.3,0.65 -0.4,0.2 -2.2,0.45 0,-2.05 1.85,-0.4 5.5,-3 -0.85,2.7 -2.6,1.45 z m -19.25,2.55 0,2.05 -2.25,0.5 -1.1,-1.85 3.35,-0.7 z m -2.25,2.55 0,-0.05 z m -29.1,-0.5 0,-0.05 0.25,0.05 0.25,0 0.25,0 0.25,0 0.25,0 0.25,0 0,-0.1 0.5,0.1 0.25,0 0.25,0 0.25,0 0.25,0 0.25,0 0,-2.05 3.25,0.7 -1.05,1.85 -0.2,-0.05 -0.25,0 -0.25,0 -0.25,0 -0.25,0 -0.5,-0.05 -0.05,0.1 -0.2,-0.05 -0.25,0 -0.25,0 -0.25,0 -0.25,0 -0.25,0 -2.25,-0.45 z m 2.25,0.45 -0.05,0.05 z m -2,-0.45 0,-0.05 z m 2.25,0.45 -0.05,0.05 z m -2,-0.45 0,-0.05 z m 2.25,0.45 -0.05,0.05 z m -2,-0.45 0,-0.05 z m 2.25,0.45 -0.05,0.05 z m -2,-0.45 0,-0.05 z m 2.25,0.45 -0.05,0.05 z m -2,-0.45 0,-0.05 z m 2.25,0.45 -0.05,0.05 z m -1.5,-0.45 0,-0.05 z m 2.25,0.45 -0.05,0.05 z m -2,-0.45 0,-0.05 z m 2.25,0.45 -0.05,0.05 z m -2,-0.45 0,-0.05 z m 2.25,0.45 -0.05,0.05 z m -2,-0.45 0,-0.05 z m 2.25,0.45 -0.05,0.05 z m -2,-0.45 0,-0.05 z m 2.25,0.45 -0.05,0.05 z m -22.75,-4.2 -0.45,-0.2 -1.2,-0.65 0.55,-1.45 -0.85,-2.7 5.5,3 1.75,0.4 0,2.05 -0.25,-0.05 -0.25,0 -0.25,0 -0.25,0 -0.25,0 -0.5,-0.05 0,0.1 -0.25,-0.05 -0.25,0 -0.25,0 -0.25,0 -0.25,0 -0.25,0 -2.05,-0.4 z m 2.05,0.4 0,0.05 z m 0.25,0 0,0.05 z m 0.25,0 0,0.05 z m 2.5,0 0,0.05 z m -0.25,0 0,0.05 z m -0.25,0 0,0.05 z m -0.25,0 0,0.05 z m -0.25,0 0,0.05 z m -0.75,0 0,0.05 z m -0.25,0 0,0.05 z m -0.25,0 0,0.05 z m -3.5,-23.6 2.35,1.3 19.6,-12.65 0.1,0.1 0.15,-0.1 0.1,0.1 0.15,-0.1 0.1,0.1 0.15,-0.1 0.1,0.1 0.15,-0.1 0.1,0.1 0.15,-0.1 0.1,0.1 0.15,-0.1 0.25,0.2 0.25,-0.2 0.1,0.1 0.15,-0.1 0.1,0.1 0.15,-0.1 0.1,0.1 0.15,-0.1 0.1,0.1 0.15,-0.1 0.1,0.1 0.15,-0.1 1.55,1.25 -3.6,2.35 -18.9,12.25 -5.5,-3 1.25,-1.5 z"
             inkscape:connector-curvature="0"
             style="fill:#9ebbc7;stroke-linecap:round;stroke-linejoin:round" />
          <path
             id="path38"
             d="m 33.85,-0.4 2.35,-4.8 0.65,-0.75 c 0.266665,-0.2 0.566664,-0.3 0.9,-0.3 l 5.25,0 0.9,0.3 0.65,0.85 0.2,1.1 -2.65,26.95 -0.5,1.15 c -0.266668,0.3 -0.583334,0.5 -0.95,0.6 l -0.4,0.05 -0.25,0 -0.25,0 -0.25,0 -0.25,0 -0.4,-0.05 -0.35,0.05 -0.25,0 -0.25,0 -0.25,0 -0.25,0 -0.25,0 -1,-0.25 -0.75,-0.95 -0.55,-1.6 2.6,-1.45 0.85,-2.7 1.95,4.9 2.65,-26.95 -2,0 -2.6,5.35 -1.3,-1.5 -0.15,0.1 -0.1,-0.1 -0.15,0.1 -0.1,-0.1 -0.15,0.1 -0.1,-0.1 -0.15,0.1 -0.1,-0.1 -0.15,0.1 -0.1,-0.1 -0.35,0.2 -0.15,-0.2 -0.15,0.1 -0.1,-0.1 -0.15,0.1 -0.1,-0.1 -0.15,0.1 -0.1,-0.1 -0.15,0.1 -0.1,-0.1 -0.15,0.1 -0.1,-0.1 -0.15,0.1 -0.1,-0.1 z M 5.4,37.25 l -7.55,0 0,-2 7.55,0 0,2 z m -40.2,-15.3 -0.65,1.6 -0.8,0.95 -0.9,0.25 -0.25,0 -0.25,0 -0.25,0 -0.3,0 -0.35,-0.05 -0.35,0.05 -0.25,0 -0.25,0 -0.25,0 -0.25,0 -0.25,0 -0.45,-0.05 c -0.4,-0.1 -0.733332,-0.3 -1,-0.6 L -42,22.95 -44.65,-4 l 0.1,-1.1 0.65,-0.85 0.95,-0.3 5.2,0 0.85,0.3 0.65,0.7 2.4,4.85 -1.25,1.5 -2.65,-5.35 -1.95,0 2.65,26.95 1.95,-4.9 0.85,2.7 -0.55,1.45 z"
             inkscape:connector-curvature="0"
             style="fill:#802b2b;stroke-linecap:round;stroke-linejoin:round" />
          <path
             id="path40"
             d="m 31.05,23.25 -15.35,3.3 0,-2.05 3.8,-0.85 3.9,-0.8 3.8,-0.8 3.85,-0.85 0,2.05 z m -62.15,0 0,-0.05 0.25,0.05 0.25,0 0.25,0 0.25,0 0.25,0 0.25,0 0,-0.1 0.5,0.1 0.25,0 0.25,0 0.25,0 0.25,0 0.25,0 0,-2.05 3.9,0.85 3.85,0.8 3.8,0.8 3.9,0.85 0,2.05 -0.25,-0.05 -0.25,0 -0.25,0 -0.25,0 -0.25,0 -0.5,-0.05 0,0.1 -0.25,-0.05 -0.25,0 -0.25,0 -0.25,0 -0.25,0 -0.25,0 -15.45,-3.25 z m 15.45,3.25 0,0.05 z m -15.2,-3.25 0,-0.05 z m 15.45,3.25 0,0.05 z m -15.2,-3.25 0,-0.05 z m 15.45,3.25 0,0.05 z m -15.2,-3.25 0,-0.05 z m 15.45,3.25 0,0.05 z m -15.2,-3.25 0,-0.05 z m 15.45,3.25 0,0.05 z m -15.2,-3.25 0,-0.05 z m 15.45,3.25 0,0.05 z m -14.7,-3.25 0,-0.05 z m 15.45,3.25 0,0.05 z m -15.2,-3.25 0,-0.05 z m 15.45,3.25 0,0.05 z m -15.2,-3.25 0,-0.05 z m 15.45,3.25 0,0.05 z m -15.2,-3.25 0,-0.05 z m 15.45,3.25 0,0.05 z m -15.2,-3.25 0,-0.05 z m 15.45,3.25 0,0.05 z"
             inkscape:connector-curvature="0"
             style="fill:#caa202;stroke-linecap:round;stroke-linejoin:round" />
          <path
             id="path42"
             d="m -7.1,-10.5 3.1,-24.7 11.3,0 3.05,24.7 2,15.95 0,19.75 -5.4,10.05 -1.55,0 4.5,-8.45 0,-21.35 -3.4,-37.15 -9.75,0 -3.4,37.15 0,21.35 4.5,8.45 -1.5,0 -5.5,-10.05 0,-19.75 2.05,-15.95 z"
             inkscape:connector-curvature="0"
             style="fill:#f2f2f2;stroke-linecap:round;stroke-linejoin:round" />
          <path
             id="path44"
             d="m -2.15,35.25 -4.5,-8.45 0,-21.35 3.4,-37.15 9.75,0 3.4,37.15 0,21.35 -4.5,8.45 -7.55,0 z m 10.2,-37.8 -0.1,-1.4 -12.6,0 -0.15,1.4 -0.85,8 14.55,0 -0.85,-8 z m -45.8,-1.7 2.65,5.35 0,16.7 -1.95,4.9 -2.65,-26.95 1.95,0 z m 78.1,26.95 -1.95,-4.9 0,-16.7 2.6,-5.35 2,0 -2.65,26.95 z"
             inkscape:connector-curvature="0"
             style="fill:#ac3939;stroke-linecap:round;stroke-linejoin:round" />
          <path
             id="path46"
             d="m 12.35,25.2 0,-19.75 -2,-15.95 3.65,2.35 1.7,13.6 0,12.75 0,0.95 0,5.35 -3.35,0.7 z m -24.75,-6.05 0,-0.95 0,-12.75 1.7,-13.6 3.6,-2.35 -2.05,15.95 0,19.75 -3.25,-0.7 0,-5.35 z"
             inkscape:connector-curvature="0"
             style="fill:#bdd6db;stroke-linecap:round;stroke-linejoin:round" />
          <path
             id="path48"
             d="m 14,-8.15 18.9,12.25 0,16.7 -1.85,0.4 0,-5.3 0,-0.95 L 15.7,18.2 15.7,5.45 14,-8.15 z m -41.85,24.05 0,5.3 -1.75,-0.4 0,-16.7 18.9,-12.25 -1.7,13.6 0,12.75 -15.45,-3.25 0,0.95 z"
             inkscape:connector-curvature="0"
             style="fill:#d3e1e7;stroke-linecap:round;stroke-linejoin:round" />
          <path
             id="path50"
             d="m 32.9,4.1 5.5,-3 0,16.7 -5.5,3 0,-16.7 z m -56.85,12.6 -3.9,-0.8 0,-0.95 15.45,3.25 0,0.95 -3.9,-0.8 -3.8,-0.8 -3.85,-0.85 z m -5.65,-12.6 0,16.7 -5.5,-3 0,-16.7 5.5,3 z m 53,13.45 -3.9,0.8 -3.8,0.8 0,-0.95 15.35,-3.25 0,0.95 -3.85,0.8 -3.8,0.85 z"
             inkscape:connector-curvature="0"
             style="fill:#b9ced7;stroke-linecap:round;stroke-linejoin:round" />
          <path
             id="path52"
             d="m 7.95,-3.95 0.1,1.4 -12.85,0 0.15,-1.4 12.6,0 z"
             inkscape:connector-curvature="0"
             style="fill:#c44d4d;stroke-linecap:round;stroke-linejoin:round" />
          <path
             id="path54"
             d="m -4.8,-2.55 12.85,0 0.85,8 -14.55,0 0.85,-8 z"
             inkscape:connector-curvature="0"
             style="fill:#4a3c55;stroke-linecap:round;stroke-linejoin:round" />
          <path
             id="path56"
             d="m -27.85,15.9 3.9,0.8 0,5.35 -3.9,-0.85 0,-5.3 z m 7.75,1.65 3.8,0.8 0,5.3 -3.8,-0.8 0,-5.3 z m 39.6,6.1 0,-5.3 3.9,-0.8 0,5.3 -3.9,0.8 z m 11.55,-7.75 0,5.3 -3.85,0.85 0,-5.35 3.85,-0.8 z"
             inkscape:connector-curvature="0"
             style="fill:#ecbd02;stroke-linecap:round;stroke-linejoin:round" />
          <path
             id="path58"
             d="m -23.95,22.05 0,-5.35 3.85,0.85 0,5.3 -3.85,-0.8 z m 7.65,-3.7 3.9,0.8 0,5.35 -3.9,-0.85 0,-5.3 z m 35.8,0 0,5.3 -3.8,0.85 0,-5.35 3.8,-0.8 z m 3.9,4.5 0,-5.3 3.8,-0.85 0,5.35 -3.8,0.8 z"
             inkscape:connector-curvature="0"
             style="fill:#ffcc00;stroke-linecap:round;stroke-linejoin:round" />
        </g>
      </g>
      <path
         id="path62"
         d="m 337.6754,531.93714 -2.35,-4.85 -0.65,-0.75 c -0.26667,-0.2 -0.55,-0.3 -0.85,-0.3 l -2.05,0 c -0.30002,0 -0.6,0.1 -0.9,0.3 -0.3,0.2 -0.5167,0.48332 -0.65,0.85 l -0.2,1.1 2.7,27.15 c 0.0333,0.43334 0.18333,0.81667 0.45,1.15 0.26666,0.3 0.6,0.49998 1,0.6 l 1.1,-0.2 0.75,-0.95 1.25,-3.05 -0.85,-2.75 -1.95,4.95 -2.7,-27.15 2.05,0 2.6,5.4 1.25,-1.5 z m 31.85,37.9 7.55,0 0,-2 -7.55,0 0,2 z m 39.75,-16.85 1.25,3.05 0.75,0.95 1.1,0.2 c 0.4,-0.10002 0.73334,-0.3 1,-0.6 l 0.45,-1.15 2.65,-27.15 -0.1,-1.1 -0.65,-0.85 c -0.3,-0.2 -0.6167,-0.3 -0.95,-0.3 l -1.95,0 c -0.33336,0 -0.63334,0.1 -0.9,0.3 l -0.65,0.7 -2.4,4.9 1.3,1.5 2.65,-5.4 1.95,0 -2.65,27.15 -1.95,-4.95 -0.9,2.75 z"
         inkscape:connector-curvature="0"
         style="fill:#802b2b;stroke-linecap:round;stroke-linejoin:round" />
      <path
         id="path64"
         d="m 337.2754,552.98714 3.9,2.1 0.4,0.2 2.2,0.45 0,-2.05 -1.85,-0.4 -5.5,-3.05 0.85,2.75 z m 21.9,6.1 2.25,0.5 1.1,-1.9 -3.35,-0.7 0,2.1 z m 26,0.5 2.2,-0.5 0,-2.1 -3.25,0.7 1.05,1.9 z m 17.7,-3.85 2.1,-0.45 0.4,-0.2 3.9,-2.1 0.9,-2.75 -5.55,3.05 -1.75,0.4 0,2.05 z m 6,-23.8 -4.15,2.25 -21.1,-13.7 -1.55,1.3 3.6,2.35 18.95,12.35 5.55,-3.05 -1.3,-1.5 z m -45.95,-11.45 -21.1,13.7 -4.15,-2.25 -1.25,1.5 5.5,3.05 18.95,-12.35 3.65,-2.35 -1.6,-1.3 z"
         inkscape:connector-curvature="0"
         style="fill:#9ebbc7;stroke-linecap:round;stroke-linejoin:round" />
      <path
         id="path66"
         d="m 343.7754,555.73714 15.4,3.35 0,-2.1 -3.85,-0.85 -3.85,-0.8 -3.85,-0.8 -3.85,-0.85 0,2.05 z m 43.6,3.35 15.5,-3.35 0,-2.05 -3.9,0.85 -3.85,0.8 -3.85,0.8 -3.9,0.85 0,2.1 z"
         inkscape:connector-curvature="0"
         style="fill:#caa202;stroke-linecap:round;stroke-linejoin:round" />
      <path
         id="path68"
         d="m 361.4254,559.58714 5.05,9.3 0.65,0.7 0.85,0.25 1.55,0 0,-2 -1.55,0 -5.45,-10.15 -1.1,1.9 z m 15.65,10.25 1.5,0 0.85,-0.25 0.65,-0.7 5.1,-9.3 -1.05,-1.9 -5.55,10.15 -1.5,0 0,2 z m 6.55,-49.35 -2.95,-23.85 c -0.0667,-0.5 -0.2667,-0.91666 -0.6,-1.25 -0.3,-0.33334 -0.68333,-0.5 -1.15,-0.5 l -11.3,0 c -0.4333,0 -0.81664,0.16666 -1.15,0.5 -0.3,0.33334 -0.50002,0.75 -0.6,1.25 l -2.95,23.85 1.6,1.3 3.1,-24.9 11.3,0 3.15,24.9 1.55,-1.3 z"
         inkscape:connector-curvature="0"
         style="fill:#cccccc;stroke-linecap:round;stroke-linejoin:round" />
      <path
         id="path70"
         d="m 336.4254,533.43714 -2.6,-5.4 -2.05,0 2.7,27.15 1.95,-4.95 0,-16.8 z m 40.65,34.4 4.55,-8.5 0,-21.5 -3.4,-37.4 -9.8,0 -3.4,37.4 0,21.5 4.5,8.5 7.55,0 z m -10.25,-38.05 0.15,-1.45 12.65,0 0.1,1.45 0.9,8.05 -14.6,0 0.8,-8.05 z m 46,-1.75 -2.65,5.4 0,16.8 1.95,4.95 2.65,-27.15 -1.95,0 z"
         inkscape:connector-curvature="0"
         style="fill:#ac3939;stroke-linecap:round;stroke-linejoin:round" />
      <path
         id="path72"
         d="m 367.6254,496.88714 -3.1,24.9 -2,16.05 0,19.85 5.45,10.15 1.55,0 -4.5,-8.5 0,-21.5 3.4,-37.4 9.8,0 3.4,37.4 0,21.5 -4.55,8.5 1.5,0 5.55,-10.15 0,-19.85 -2.05,-16.05 -3.15,-24.9 -11.3,0 z"
         inkscape:connector-curvature="0"
         style="fill:#f2f2f2;stroke-linecap:round;stroke-linejoin:round" />
      <path
         id="path74"
         d="m 382.0754,521.78714 2.05,16.05 0,19.85 3.25,-0.7 0,-5.35 0,-1 0,-12.8 -1.7,-13.7 -3.6,-2.35 z m -19.55,35.9 0,-19.85 2,-16.05 -3.65,2.35 -1.7,13.7 0,12.8 0,1 0,5.35 3.35,0.7 z"
         inkscape:connector-curvature="0"
         style="fill:#bdd6db;stroke-linecap:round;stroke-linejoin:round" />
      <path
         id="path76"
         d="m 385.6754,524.13714 1.7,13.7 0,12.8 15.5,-3.25 0,0.95 0,5.35 1.75,-0.4 0,-16.8 -18.95,-12.35 z m -26.5,13.7 1.7,-13.7 -18.95,12.35 0,16.8 1.85,0.4 0,-5.35 0,-0.95 15.4,3.25 0,-12.8 z"
         inkscape:connector-curvature="0"
         style="fill:#d3e1e7;stroke-linecap:round;stroke-linejoin:round" />
      <path
         id="path78"
         d="m 387.3754,550.63714 0,1 3.9,-0.85 3.85,-0.8 3.85,-0.85 3.9,-0.8 0,-0.95 -15.5,3.25 z m 17.25,-14.15 0,16.8 5.55,-3.05 0,-16.8 -5.55,3.05 z m -45.45,14.15 -15.4,-3.25 0,0.95 3.85,0.8 3.85,0.85 3.85,0.8 3.85,0.85 0,-1 z m -17.25,2.65 0,-16.8 -5.5,-3.05 0,16.8 5.5,3.05 z"
         inkscape:connector-curvature="0"
         style="fill:#b9ced7;stroke-linecap:round;stroke-linejoin:round" />
      <path
         id="path80"
         d="m 387.3754,551.63714 0,5.35 3.9,-0.85 0,-5.35 -3.9,0.85 z m -39.75,-2.5 0,5.4 3.85,0.8 0,-5.35 -3.85,-0.85 z m 7.7,1.65 0,5.35 3.85,0.85 0,-5.35 -3.85,-0.85 z m 39.8,-0.8 0,5.35 3.85,-0.8 0,-5.4 -3.85,0.85 z"
         inkscape:connector-curvature="0"
         style="fill:#ffcc00;stroke-linecap:round;stroke-linejoin:round" />
      <path
         id="path82"
         d="m 366.9754,528.33714 -0.15,1.45 12.9,0 -0.1,-1.45 -12.65,0 z"
         inkscape:connector-curvature="0"
         style="fill:#c44d4d;stroke-linecap:round;stroke-linejoin:round" />
      <path
         id="path84"
         d="m 379.7254,529.78714 -12.9,0 -0.8,8.05 14.6,0 -0.9,-8.05 z"
         inkscape:connector-curvature="0"
         style="fill:#4a3c55;stroke-linecap:round;stroke-linejoin:round" />
      <path
         id="path86"
         d="m 402.8754,553.68714 0,-5.35 -3.9,0.8 0,5.4 3.9,-0.85 z m -59.1,-5.35 0,5.35 3.85,0.85 0,-5.4 -3.85,-0.8 z m 11.55,7.8 0,-5.35 -3.85,-0.8 0,5.35 3.85,0.8 z m 35.95,-5.35 0,5.35 3.85,-0.8 0,-5.35 -3.85,0.8 z"
         inkscape:connector-curvature="0"
         style="fill:#ecbd02;stroke-linecap:round;stroke-linejoin:round" />
    </g>
    <path
       style="opacity:0.30196078;fill:#ffffff;stroke-linecap:round;stroke-linejoin:round"
       inkscape:connector-curvature="0"
       d="m 423.78901,556.59099 c 7.44261,-10.63333 11.16391,-22.9 11.16391,-36.8 0,-17.53333 -5.98297,-32.51667 -17.94887,-44.95 -11.9659,-12.46666 -26.40199,-18.7 -43.30827,-18.7 -16.93835,0 -31.39048,6.21666 -43.35639,18.65 -11.93382,12.46666 -17.90075,27.46666 -17.90075,45 0,13.83336 3.67317,26.05003 11.01955,36.65 -9.17495,-11.76666 -13.76241,-25.53332 -13.76241,-41.3 0,-18.4 6.23961,-34.08334 18.7188,-47.05 12.51128,-12.96666 27.60501,-19.45 45.2812,-19.45 17.67619,0 32.75388,6.48334 45.23308,19.45 12.51128,13 18.76692,28.68333 18.76692,47.05 0,15.83333 -4.6356,29.65 -13.90677,41.45 z m -93.44962,-81.8 0,0.05 z m 86.66466,0.05 -0.0481,-0.05 z"
       id="path280" />
  </g>
</svg>
